<?xml version="1.0" encoding="iso-8859-1"?>
<!-- Generator: Adobe Illustrator 18.1.1, SVG Export Plug-In . SVG Version: 6.00 Build 0)  -->
<svg version="1.1" id="Capa_1" xmlns="http://www.w3.org/2000/svg" xmlns:xlink="http://www.w3.org/1999/xlink" x="0px" y="0px"
	 viewBox="0 0 53.246 53.246" style="enable-background:new 0 0 53.246 53.246;" xml:space="preserve">
<g>
	<g>
		<path style="fill:#010002;" d="M39.183,3.25H14.118c-7.754,0-14.062,6.308-14.062,14.061l0.001,8.635
			c-0.119,3.307-0.473,19.995,4.283,23.731c0.268,0.21,0.595,0.319,0.926,0.319c0.154,0,0.309-0.023,0.459-0.071
			c0.475-0.152,0.843-0.53,0.983-1.008c0.72-2.464,3.455-8.856,7.411-8.856h25.065c7.754,0,14.062-6.308,14.062-14.062v-8.688
			C53.245,9.558,46.937,3.25,39.183,3.25z M50.245,26c0,6.1-4.963,11.062-11.062,11.062H14.118c-4.773,0-7.756,4.896-9.216,8.165
			C3.314,41.023,2.834,32.204,3.056,26v-8.688c0-6.1,4.963-11.061,11.062-11.061h25.065c6.1,0,11.062,4.962,11.062,11.061V26z"/>
		<path style="fill:#010002;" d="M36.505,17.331c-0.715-0.414-1.633-0.175-2.051,0.543l-2.333,4.01
			c-0.115,0.199-0.419,0.66-0.743,0.66c-0.002,0-0.004,0-0.007,0c-0.373-0.007-1.041-0.514-1.623-1.609
			c-0.967-1.82-2.383-2.84-3.988-2.872c-0.025,0-0.05-0.001-0.074-0.001c-1.588,0-3.094,1.024-4.142,2.82
			c-0.96,1.645-1.874,2.489-2.337,2.768c-1.41-1.202-3.667-1.157-5.253,0.172l-2,1.677c-0.635,0.532-0.718,1.479-0.186,2.113
			c0.297,0.354,0.722,0.536,1.15,0.536c0.34,0,0.682-0.115,0.963-0.35l2-1.677c0.507-0.424,1.167-0.429,1.419-0.148
			c0.51,0.569,1.227,0.845,2.008,0.76c2.201-0.223,4.108-3.107,4.827-4.338c0.492-0.844,1.071-1.366,1.564-1.331
			c0.455,0.009,0.978,0.487,1.399,1.279c1.065,2.004,2.601,3.171,4.216,3.202c1.349,0.01,2.577-0.739,3.4-2.152l2.333-4.01
			C37.464,18.666,37.222,17.748,36.505,17.331z"/>
	</g>
</g>
<g>
</g>
<g>
</g>
<g>
</g>
<g>
</g>
<g>
</g>
<g>
</g>
<g>
</g>
<g>
</g>
<g>
</g>
<g>
</g>
<g>
</g>
<g>
</g>
<g>
</g>
<g>
</g>
<g>
</g>
</svg>
