<?xml version="1.0" encoding="iso-8859-1"?>
<!-- Generator: Adobe Illustrator 19.0.0, SVG Export Plug-In . SVG Version: 6.00 Build 0)  -->
<svg version="1.1" id="Layer_1" xmlns="http://www.w3.org/2000/svg" xmlns:xlink="http://www.w3.org/1999/xlink" x="0px" y="0px"
	 viewBox="0 0 371.206 371.206" style="enable-background:new 0 0 371.206 371.206;" xml:space="preserve">
<g>
	<g>
		<circle style="fill:#FEE050;" cx="109.771" cy="205.022" r="102.271"/>
		<g>
			<path style="fill:#AF8400;" d="M166.289,205.023c0,31.213-25.302,56.518-56.518,56.518c-31.212,0-56.518-25.305-56.518-56.518
				H166.289z"/>
		</g>
	</g>
	<g>
		<path style="fill:#C3C6C8;" d="M276.858,63.912c-47.963,0-86.843,38.881-86.843,86.845c0,21.612,7.914,41.365,20.976,56.562
			c-3.925,11.303-11.171,21.052-20.598,28.048c5.982,2.044,12.394,3.17,19.066,3.17c11.425,0,22.084-3.258,31.118-8.883
			c11.043,5.087,23.325,7.945,36.282,7.945c47.966,0,86.847-38.88,86.847-86.842C363.705,102.793,324.824,63.912,276.858,63.912z"/>
	</g>
	<path style="fill:#071C2C;" d="M56.873,183.769c0-6.64-5.382-12.024-12.025-12.024c-6.644,0-12.027,5.384-12.027,12.024
		c0,6.643,5.383,12.029,12.027,12.029C51.491,195.797,56.873,190.411,56.873,183.769z M166.289,197.523H53.252
		c-4.142,0-7.5,3.358-7.5,7.5c0,35.3,28.718,64.018,64.018,64.018s64.018-28.718,64.018-64.018
		C173.789,200.881,170.431,197.523,166.289,197.523z M109.771,254.042c-24.48,0-44.826-18.036-48.445-41.518h96.891
		C154.596,236.006,134.25,254.042,109.771,254.042z M174.697,171.743c-6.642,0-12.029,5.384-12.029,12.024
		c0,6.643,5.387,12.029,12.029,12.029c6.639,0,12.024-5.386,12.024-12.029C186.721,177.128,181.336,171.743,174.697,171.743z
		 M322.17,131.199h-90.624c-4.142,0-7.5,3.358-7.5,7.5s3.358,7.5,7.5,7.5h90.624c4.142,0,7.5-3.358,7.5-7.5
		S326.313,131.199,322.17,131.199z M276.858,56.412c-43.409,0-80.058,29.472-91.005,69.457
		c-20.329-19.617-47.315-30.618-76.083-30.618C49.243,95.251,0,144.495,0,205.023s49.243,109.771,109.771,109.771
		c45.009,0,85.214-27.417,101.847-68.792c10.326-0.334,20.393-3.057,29.442-7.957c11.378,4.683,23.401,7.055,35.799,7.055
		c52.023,0,94.347-42.322,94.347-94.342C371.205,98.735,328.881,56.412,276.858,56.412z M182.982,236.523
		c0.429,2.753,2.349,5.042,4.986,5.942c2.6,0.888,5.241,1.613,7.913,2.171c-15.326,33.345-48.805,55.158-86.11,55.158
		C57.514,299.793,15,257.279,15,205.023s42.514-94.771,94.771-94.771c28.44,0,54.866,12.456,72.956,34.276
		c-0.135,2.06-0.211,4.136-0.211,6.229c0,21.005,7.035,41.397,19.896,57.916c-3.593,8.199-9.235,15.29-16.488,20.672
		C183.686,231.006,182.553,233.77,182.982,236.523z M276.858,230.1c-11.538,0-22.689-2.442-33.144-7.257
		c-2.292-1.056-4.96-0.888-7.102,0.445c-8.143,5.07-17.532,7.75-27.154,7.75c-1.145,0-2.288-0.038-3.426-0.114
		c5.252-6.203,9.334-13.344,12.043-21.144c0.876-2.524,0.344-5.323-1.397-7.349c-12.358-14.378-19.164-32.729-19.164-51.673
		c0-43.751,35.593-79.345,79.343-79.345c43.752,0,79.347,35.594,79.347,79.345C356.205,194.507,320.61,230.1,276.858,230.1z
		 M303.564,178.204h-53.411c-4.142,0-7.5,3.358-7.5,7.5s3.358,7.5,7.5,7.5h53.411c4.142,0,7.5-3.358,7.5-7.5
		S307.706,178.204,303.564,178.204z M250.153,122.695h53.411c4.142,0,7.5-3.358,7.5-7.5s-3.358-7.5-7.5-7.5h-53.411
		c-4.142,0-7.5,3.358-7.5,7.5S246.011,122.695,250.153,122.695z M316.084,154.701h-78.451c-4.142,0-7.5,3.358-7.5,7.5
		s3.358,7.5,7.5,7.5h78.451c4.142,0,7.5-3.358,7.5-7.5S320.226,154.701,316.084,154.701z"/>
</g>
<g>
</g>
<g>
</g>
<g>
</g>
<g>
</g>
<g>
</g>
<g>
</g>
<g>
</g>
<g>
</g>
<g>
</g>
<g>
</g>
<g>
</g>
<g>
</g>
<g>
</g>
<g>
</g>
<g>
</g>
</svg>
